<svg width="32" height="32" viewBox="0 0 32 32" fill="none" xmlns="http://www.w3.org/2000/svg">
<path d="M27.314 4.68703C27.6854 5.05846 27.9801 5.49943 28.1811 5.98475C28.3822 6.47006 28.4856 6.99022 28.4856 7.51553C28.4856 8.04083 28.3822 8.56099 28.1811 9.04631C27.9801 9.53162 27.6854 9.97259 27.314 10.344L12.54 25.117C11.8992 25.7578 11.0962 26.2124 10.217 26.432L5.63499 27.578C5.46741 27.62 5.29181 27.6178 5.12531 27.5718C4.95881 27.5257 4.80708 27.4373 4.68492 27.3151C4.56276 27.1929 4.47433 27.0412 4.42825 26.8747C4.38218 26.7082 4.38002 26.5326 4.42199 26.365L5.56799 21.783C5.78771 20.9038 6.24224 20.1009 6.88299 19.46L21.657 4.68703C22.0284 4.31557 22.4694 4.02091 22.9547 3.81988C23.44 3.61885 23.9602 3.51538 24.4855 3.51538C25.0108 3.51538 25.531 3.61885 26.0163 3.81988C26.5016 4.02091 26.9426 4.31557 27.314 4.68703V4.68703ZM20.243 8.93003L8.29799 20.874C7.91351 21.2586 7.64079 21.7404 7.50899 22.268L6.76799 25.233L9.73299 24.492C10.2607 24.3599 10.7425 24.0868 11.127 23.702L23.07 11.759L20.243 8.93003ZM23.07 6.10003L21.656 7.51503L24.484 10.343L25.9 8.93003C26.2753 8.55475 26.4861 8.04575 26.4861 7.51503C26.4861 6.9843 26.2753 6.47531 25.9 6.10003C25.5247 5.72475 25.0157 5.51391 24.485 5.51391C23.9543 5.51391 23.4453 5.72475 23.07 6.10003V6.10003Z" fill="#111111"/>
</svg>
